<mxfile host="65bd71144e">
    <diagram id="wHaPtrlemiOSuc4_M_N2" name="PÃ¡gina-1">
        <mxGraphModel dx="1909" dy="1024" grid="1" gridSize="10" guides="1" tooltips="1" connect="1" arrows="1" fold="1" page="1" pageScale="1" pageWidth="827" pageHeight="1169" math="0" shadow="0">
            <root>
                <mxCell id="0"/>
                <mxCell id="1" parent="0"/>
                <mxCell id="65" style="rounded=0;orthogonalLoop=1;jettySize=auto;html=1;exitX=0.5;exitY=1;exitDx=0;exitDy=0;entryX=0.5;entryY=0;entryDx=0;entryDy=0;endArrow=open;endFill=0;endSize=16;dashed=1;dashPattern=8 8;" edge="1" parent="1" source="66" target="106">
                    <mxGeometry relative="1" as="geometry"/>
                </mxCell>
                <mxCell id="66" value="Cinta" style="swimlane;fontStyle=1;align=center;verticalAlign=top;childLayout=stackLayout;horizontal=1;startSize=26;horizontalStack=0;resizeParent=1;resizeParentMax=0;resizeLast=0;collapsible=1;marginBottom=0;whiteSpace=wrap;html=1;" vertex="1" parent="1">
                    <mxGeometry x="560" y="114" width="300" height="198" as="geometry"/>
                </mxCell>
                <mxCell id="67" value="- n_elementos: int" style="text;strokeColor=none;fillColor=none;align=left;verticalAlign=top;spacingLeft=4;spacingRight=4;overflow=hidden;rotatable=0;points=[[0,0.5],[1,0.5]];portConstraint=eastwest;whiteSpace=wrap;html=1;" vertex="1" parent="66">
                    <mxGeometry y="26" width="300" height="26" as="geometry"/>
                </mxCell>
                <mxCell id="68" value="- detector" style="text;strokeColor=none;fillColor=none;align=left;verticalAlign=top;spacingLeft=4;spacingRight=4;overflow=hidden;rotatable=0;points=[[0,0.5],[1,0.5]];portConstraint=eastwest;whiteSpace=wrap;html=1;" vertex="1" parent="66">
                    <mxGeometry y="52" width="300" height="26" as="geometry"/>
                </mxCell>
                <mxCell id="69" value="- cajon" style="text;strokeColor=none;fillColor=none;align=left;verticalAlign=top;spacingLeft=4;spacingRight=4;overflow=hidden;rotatable=0;points=[[0,0.5],[1,0.5]];portConstraint=eastwest;whiteSpace=wrap;html=1;" vertex="1" parent="66">
                    <mxGeometry y="78" width="300" height="26" as="geometry"/>
                </mxCell>
                <mxCell id="70" value="- calculador" style="text;strokeColor=none;fillColor=none;align=left;verticalAlign=top;spacingLeft=4;spacingRight=4;overflow=hidden;rotatable=0;points=[[0,0.5],[1,0.5]];portConstraint=eastwest;whiteSpace=wrap;html=1;" vertex="1" parent="66">
                    <mxGeometry y="104" width="300" height="26" as="geometry"/>
                </mxCell>
                <mxCell id="71" value="" style="line;strokeWidth=1;fillColor=none;align=left;verticalAlign=middle;spacingTop=-1;spacingLeft=3;spacingRight=3;rotatable=0;labelPosition=right;points=[];portConstraint=eastwest;strokeColor=inherit;" vertex="1" parent="66">
                    <mxGeometry y="130" width="300" height="8" as="geometry"/>
                </mxCell>
                <mxCell id="72" value="+ __init__(n_elementos:int, detector,cajon, calculador" style="text;strokeColor=none;fillColor=none;align=left;verticalAlign=top;spacingLeft=4;spacingRight=4;overflow=hidden;rotatable=0;points=[[0,0.5],[1,0.5]];portConstraint=eastwest;whiteSpace=wrap;html=1;" vertex="1" parent="66">
                    <mxGeometry y="138" width="300" height="34" as="geometry"/>
                </mxCell>
                <mxCell id="73" value="+ agregar_alimento" style="text;strokeColor=none;fillColor=none;align=left;verticalAlign=top;spacingLeft=4;spacingRight=4;overflow=hidden;rotatable=0;points=[[0,0.5],[1,0.5]];portConstraint=eastwest;whiteSpace=wrap;html=1;" vertex="1" parent="66">
                    <mxGeometry y="172" width="300" height="26" as="geometry"/>
                </mxCell>
                <mxCell id="74" value="DetectorAlimento" style="swimlane;fontStyle=1;align=center;verticalAlign=top;childLayout=stackLayout;horizontal=1;startSize=26;horizontalStack=0;resizeParent=1;resizeParentMax=0;resizeLast=0;collapsible=1;marginBottom=0;whiteSpace=wrap;html=1;" vertex="1" parent="1">
                    <mxGeometry x="1090" y="58" width="160" height="190" as="geometry"/>
                </mxCell>
                <mxCell id="75" value="- alimentos" style="text;strokeColor=none;fillColor=none;align=left;verticalAlign=top;spacingLeft=4;spacingRight=4;overflow=hidden;rotatable=0;points=[[0,0.5],[1,0.5]];portConstraint=eastwest;whiteSpace=wrap;html=1;" vertex="1" parent="74">
                    <mxGeometry y="26" width="160" height="26" as="geometry"/>
                </mxCell>
                <mxCell id="76" value="- peso_alimentos" style="text;strokeColor=none;fillColor=none;align=left;verticalAlign=top;spacingLeft=4;spacingRight=4;overflow=hidden;rotatable=0;points=[[0,0.5],[1,0.5]];portConstraint=eastwest;whiteSpace=wrap;html=1;" vertex="1" parent="74">
                    <mxGeometry y="52" width="160" height="26" as="geometry"/>
                </mxCell>
                <mxCell id="77" value="- prob_pesos" style="text;strokeColor=none;fillColor=none;align=left;verticalAlign=top;spacingLeft=4;spacingRight=4;overflow=hidden;rotatable=0;points=[[0,0.5],[1,0.5]];portConstraint=eastwest;whiteSpace=wrap;html=1;" vertex="1" parent="74">
                    <mxGeometry y="78" width="160" height="26" as="geometry"/>
                </mxCell>
                <mxCell id="78" value="" style="line;strokeWidth=1;fillColor=none;align=left;verticalAlign=middle;spacingTop=-1;spacingLeft=3;spacingRight=3;rotatable=0;labelPosition=right;points=[];portConstraint=eastwest;strokeColor=inherit;" vertex="1" parent="74">
                    <mxGeometry y="104" width="160" height="8" as="geometry"/>
                </mxCell>
                <mxCell id="79" value="+ __init__()" style="text;strokeColor=none;fillColor=none;align=left;verticalAlign=top;spacingLeft=4;spacingRight=4;overflow=hidden;rotatable=0;points=[[0,0.5],[1,0.5]];portConstraint=eastwest;whiteSpace=wrap;html=1;" vertex="1" parent="74">
                    <mxGeometry y="112" width="160" height="26" as="geometry"/>
                </mxCell>
                <mxCell id="80" value="+ detectar_alimento" style="text;strokeColor=none;fillColor=none;align=left;verticalAlign=top;spacingLeft=4;spacingRight=4;overflow=hidden;rotatable=0;points=[[0,0.5],[1,0.5]];portConstraint=eastwest;whiteSpace=wrap;html=1;" vertex="1" parent="74">
                    <mxGeometry y="138" width="160" height="26" as="geometry"/>
                </mxCell>
                <mxCell id="81" value="+ crear_instancia_alimento" style="text;strokeColor=none;fillColor=none;align=left;verticalAlign=top;spacingLeft=4;spacingRight=4;overflow=hidden;rotatable=0;points=[[0,0.5],[1,0.5]];portConstraint=eastwest;whiteSpace=wrap;html=1;" vertex="1" parent="74">
                    <mxGeometry y="164" width="160" height="26" as="geometry"/>
                </mxCell>
                <mxCell id="82" value="CalculadorBromatologico" style="swimlane;fontStyle=1;align=center;verticalAlign=top;childLayout=stackLayout;horizontal=1;startSize=26;horizontalStack=0;resizeParent=1;resizeParentMax=0;resizeLast=0;collapsible=1;marginBottom=0;whiteSpace=wrap;html=1;" vertex="1" parent="1">
                    <mxGeometry x="180" y="119" width="240" height="216" as="geometry"/>
                </mxCell>
                <mxCell id="83" value="" style="line;strokeWidth=1;fillColor=none;align=left;verticalAlign=middle;spacingTop=-1;spacingLeft=3;spacingRight=3;rotatable=0;labelPosition=right;points=[];portConstraint=eastwest;strokeColor=inherit;" vertex="1" parent="82">
                    <mxGeometry y="26" width="240" height="8" as="geometry"/>
                </mxCell>
                <mxCell id="84" value="+ __init__(alimento: str)" style="text;strokeColor=none;fillColor=none;align=left;verticalAlign=top;spacingLeft=4;spacingRight=4;overflow=hidden;rotatable=0;points=[[0,0.5],[1,0.5]];portConstraint=eastwest;whiteSpace=wrap;html=1;" vertex="1" parent="82">
                    <mxGeometry y="34" width="240" height="26" as="geometry"/>
                </mxCell>
                <mxCell id="85" value="+ verificar_aw" style="text;strokeColor=none;fillColor=none;align=left;verticalAlign=top;spacingLeft=4;spacingRight=4;overflow=hidden;rotatable=0;points=[[0,0.5],[1,0.5]];portConstraint=eastwest;whiteSpace=wrap;html=1;" vertex="1" parent="82">
                    <mxGeometry y="60" width="240" height="26" as="geometry"/>
                </mxCell>
                <mxCell id="86" value="+&amp;nbsp;aw_alimento" style="text;strokeColor=none;fillColor=none;align=left;verticalAlign=top;spacingLeft=4;spacingRight=4;overflow=hidden;rotatable=0;points=[[0,0.5],[1,0.5]];portConstraint=eastwest;whiteSpace=wrap;html=1;" vertex="1" parent="82">
                    <mxGeometry y="86" width="240" height="26" as="geometry"/>
                </mxCell>
                <mxCell id="87" value="+&amp;nbsp;aw_prom_" style="text;strokeColor=none;fillColor=none;align=left;verticalAlign=top;spacingLeft=4;spacingRight=4;overflow=hidden;rotatable=0;points=[[0,0.5],[1,0.5]];portConstraint=eastwest;whiteSpace=wrap;html=1;" vertex="1" parent="82">
                    <mxGeometry y="112" width="240" height="26" as="geometry"/>
                </mxCell>
                <mxCell id="88" value="+&amp;nbsp;aw_prom_frutas" style="text;strokeColor=none;fillColor=none;align=left;verticalAlign=top;spacingLeft=4;spacingRight=4;overflow=hidden;rotatable=0;points=[[0,0.5],[1,0.5]];portConstraint=eastwest;whiteSpace=wrap;html=1;" vertex="1" parent="82">
                    <mxGeometry y="138" width="240" height="26" as="geometry"/>
                </mxCell>
                <mxCell id="89" value="+ aw_prom_verduras" style="text;strokeColor=none;fillColor=none;align=left;verticalAlign=top;spacingLeft=4;spacingRight=4;overflow=hidden;rotatable=0;points=[[0,0.5],[1,0.5]];portConstraint=eastwest;whiteSpace=wrap;html=1;" vertex="1" parent="82">
                    <mxGeometry y="164" width="240" height="26" as="geometry"/>
                </mxCell>
                <mxCell id="90" value="+ aw_total" style="text;strokeColor=none;fillColor=none;align=left;verticalAlign=top;spacingLeft=4;spacingRight=4;overflow=hidden;rotatable=0;points=[[0,0.5],[1,0.5]];portConstraint=eastwest;whiteSpace=wrap;html=1;" vertex="1" parent="82">
                    <mxGeometry y="190" width="240" height="26" as="geometry"/>
                </mxCell>
                <mxCell id="91" style="rounded=0;orthogonalLoop=1;jettySize=auto;html=1;exitX=0.5;exitY=0;exitDx=0;exitDy=0;entryX=0.691;entryY=0.997;entryDx=0;entryDy=0;entryPerimeter=0;endArrow=block;endFill=0;" edge="1" parent="1" source="92" target="115">
                    <mxGeometry relative="1" as="geometry">
                        <mxPoint x="495" y="710" as="targetPoint"/>
                    </mxGeometry>
                </mxCell>
                <mxCell id="92" value="Manzana" style="swimlane;fontStyle=1;align=center;verticalAlign=top;childLayout=stackLayout;horizontal=1;startSize=26;horizontalStack=0;resizeParent=1;resizeParentMax=0;resizeLast=0;collapsible=1;marginBottom=0;whiteSpace=wrap;html=1;" vertex="1" parent="1">
                    <mxGeometry x="475" y="850" width="190" height="64" as="geometry"/>
                </mxCell>
                <mxCell id="93" value="" style="line;strokeWidth=1;fillColor=none;align=left;verticalAlign=middle;spacingTop=-1;spacingLeft=3;spacingRight=3;rotatable=0;labelPosition=right;points=[];portConstraint=eastwest;strokeColor=inherit;" vertex="1" parent="92">
                    <mxGeometry y="26" width="190" height="8" as="geometry"/>
                </mxCell>
                <mxCell id="94" value="- peso_del_alimento" style="text;strokeColor=none;fillColor=none;align=left;verticalAlign=top;spacingLeft=4;spacingRight=4;overflow=hidden;rotatable=0;points=[[0,0.5],[1,0.5]];portConstraint=eastwest;whiteSpace=wrap;html=1;" vertex="1" parent="92">
                    <mxGeometry y="34" width="190" height="30" as="geometry"/>
                </mxCell>
                <mxCell id="95" style="rounded=0;orthogonalLoop=1;jettySize=auto;html=1;exitX=0.5;exitY=0;exitDx=0;exitDy=0;entryX=0.215;entryY=1.038;entryDx=0;entryDy=0;entryPerimeter=0;endArrow=block;endFill=0;" edge="1" parent="1" source="96" target="119">
                    <mxGeometry relative="1" as="geometry">
                        <mxPoint x="935" y="710" as="targetPoint"/>
                    </mxGeometry>
                </mxCell>
                <mxCell id="96" value="Papa" style="swimlane;fontStyle=1;align=center;verticalAlign=top;childLayout=stackLayout;horizontal=1;startSize=26;horizontalStack=0;resizeParent=1;resizeParentMax=0;resizeLast=0;collapsible=1;marginBottom=0;whiteSpace=wrap;html=1;" vertex="1" parent="1">
                    <mxGeometry x="735" y="850" width="176" height="64" as="geometry"/>
                </mxCell>
                <mxCell id="97" value="" style="line;strokeWidth=1;fillColor=none;align=left;verticalAlign=middle;spacingTop=-1;spacingLeft=3;spacingRight=3;rotatable=0;labelPosition=right;points=[];portConstraint=eastwest;strokeColor=inherit;" vertex="1" parent="96">
                    <mxGeometry y="26" width="176" height="8" as="geometry"/>
                </mxCell>
                <mxCell id="98" value="- peso_del_alimento" style="text;strokeColor=none;fillColor=none;align=left;verticalAlign=top;spacingLeft=4;spacingRight=4;overflow=hidden;rotatable=0;points=[[0,0.5],[1,0.5]];portConstraint=eastwest;whiteSpace=wrap;html=1;" vertex="1" parent="96">
                    <mxGeometry y="34" width="176" height="30" as="geometry"/>
                </mxCell>
                <mxCell id="99" value="Zanahoria" style="swimlane;fontStyle=1;align=center;verticalAlign=top;childLayout=stackLayout;horizontal=1;startSize=26;horizontalStack=0;resizeParent=1;resizeParentMax=0;resizeLast=0;collapsible=1;marginBottom=0;whiteSpace=wrap;html=1;" vertex="1" parent="1">
                    <mxGeometry x="1065" y="850" width="176" height="64" as="geometry"/>
                </mxCell>
                <mxCell id="100" value="" style="line;strokeWidth=1;fillColor=none;align=left;verticalAlign=middle;spacingTop=-1;spacingLeft=3;spacingRight=3;rotatable=0;labelPosition=right;points=[];portConstraint=eastwest;strokeColor=inherit;" vertex="1" parent="99">
                    <mxGeometry y="26" width="176" height="8" as="geometry"/>
                </mxCell>
                <mxCell id="101" value="- peso_del_alimento" style="text;strokeColor=none;fillColor=none;align=left;verticalAlign=top;spacingLeft=4;spacingRight=4;overflow=hidden;rotatable=0;points=[[0,0.5],[1,0.5]];portConstraint=eastwest;whiteSpace=wrap;html=1;" vertex="1" parent="99">
                    <mxGeometry y="34" width="176" height="30" as="geometry"/>
                </mxCell>
                <mxCell id="102" style="rounded=0;orthogonalLoop=1;jettySize=auto;html=1;exitX=0.5;exitY=0;exitDx=0;exitDy=0;entryX=0.243;entryY=1.024;entryDx=0;entryDy=0;entryPerimeter=0;endArrow=block;endFill=0;" edge="1" parent="1" source="103" target="115">
                    <mxGeometry relative="1" as="geometry">
                        <mxPoint x="482" y="650" as="targetPoint"/>
                        <mxPoint x="360" y="760" as="sourcePoint"/>
                    </mxGeometry>
                </mxCell>
                <mxCell id="103" value="Kiwi&lt;div&gt;&lt;br&gt;&lt;/div&gt;" style="swimlane;fontStyle=1;align=center;verticalAlign=top;childLayout=stackLayout;horizontal=1;startSize=26;horizontalStack=0;resizeParent=1;resizeParentMax=0;resizeLast=0;collapsible=1;marginBottom=0;whiteSpace=wrap;html=1;" vertex="1" parent="1">
                    <mxGeometry x="233" y="850" width="176" height="64" as="geometry"/>
                </mxCell>
                <mxCell id="104" value="" style="line;strokeWidth=1;fillColor=none;align=left;verticalAlign=middle;spacingTop=-1;spacingLeft=3;spacingRight=3;rotatable=0;labelPosition=right;points=[];portConstraint=eastwest;strokeColor=inherit;" vertex="1" parent="103">
                    <mxGeometry y="26" width="176" height="8" as="geometry"/>
                </mxCell>
                <mxCell id="105" value="- peso_del_alimento" style="text;strokeColor=none;fillColor=none;align=left;verticalAlign=top;spacingLeft=4;spacingRight=4;overflow=hidden;rotatable=0;points=[[0,0.5],[1,0.5]];portConstraint=eastwest;whiteSpace=wrap;html=1;" vertex="1" parent="103">
                    <mxGeometry y="34" width="176" height="30" as="geometry"/>
                </mxCell>
                <mxCell id="106" value="Alimento" style="swimlane;fontStyle=1;align=center;verticalAlign=top;childLayout=stackLayout;horizontal=1;startSize=26;horizontalStack=0;resizeParent=1;resizeParentMax=0;resizeLast=0;collapsible=1;marginBottom=0;whiteSpace=wrap;html=1;" vertex="1" parent="1">
                    <mxGeometry x="615" y="470" width="190" height="166" as="geometry"/>
                </mxCell>
                <mxCell id="107" value="&lt;font style=&quot;font-size: 14px;&quot;&gt;dependencia&lt;br&gt;Cinta usa a Alimento&lt;/font&gt;" style="text;html=1;align=center;verticalAlign=middle;resizable=0;points=[];autosize=1;strokeColor=none;fillColor=none;" vertex="1" parent="106">
                    <mxGeometry y="26" width="190" height="50" as="geometry"/>
                </mxCell>
                <mxCell id="108" value="- peso_alimento" style="text;strokeColor=none;fillColor=none;align=left;verticalAlign=top;spacingLeft=4;spacingRight=4;overflow=hidden;rotatable=0;points=[[0,0.5],[1,0.5]];portConstraint=eastwest;whiteSpace=wrap;html=1;" vertex="1" parent="106">
                    <mxGeometry y="76" width="190" height="26" as="geometry"/>
                </mxCell>
                <mxCell id="109" value="-&amp;nbsp;" style="text;strokeColor=none;fillColor=none;align=left;verticalAlign=top;spacingLeft=4;spacingRight=4;overflow=hidden;rotatable=0;points=[[0,0.5],[1,0.5]];portConstraint=eastwest;whiteSpace=wrap;html=1;" vertex="1" parent="106">
                    <mxGeometry y="102" width="190" height="26" as="geometry"/>
                </mxCell>
                <mxCell id="110" value="" style="line;strokeWidth=1;fillColor=none;align=left;verticalAlign=middle;spacingTop=-1;spacingLeft=3;spacingRight=3;rotatable=0;labelPosition=right;points=[];portConstraint=eastwest;strokeColor=inherit;" vertex="1" parent="106">
                    <mxGeometry y="128" width="190" height="8" as="geometry"/>
                </mxCell>
                <mxCell id="111" value="+ calcular_aw()" style="text;strokeColor=none;fillColor=none;align=left;verticalAlign=top;spacingLeft=4;spacingRight=4;overflow=hidden;rotatable=0;points=[[0,0.5],[1,0.5]];portConstraint=eastwest;whiteSpace=wrap;html=1;" vertex="1" parent="106">
                    <mxGeometry y="136" width="190" height="30" as="geometry"/>
                </mxCell>
                <mxCell id="112" style="rounded=0;orthogonalLoop=1;jettySize=auto;html=1;exitX=0.5;exitY=0;exitDx=0;exitDy=0;entryX=0;entryY=0.5;entryDx=0;entryDy=0;endArrow=block;endFill=0;" edge="1" parent="1" source="113">
                    <mxGeometry relative="1" as="geometry">
                        <mxPoint x="615" y="561" as="targetPoint"/>
                    </mxGeometry>
                </mxCell>
                <mxCell id="113" value="Fruta" style="swimlane;fontStyle=1;align=center;verticalAlign=top;childLayout=stackLayout;horizontal=1;startSize=26;horizontalStack=0;resizeParent=1;resizeParentMax=0;resizeLast=0;collapsible=1;marginBottom=0;whiteSpace=wrap;html=1;" vertex="1" parent="1">
                    <mxGeometry x="373" y="610" width="176" height="64" as="geometry"/>
                </mxCell>
                <mxCell id="114" value="" style="line;strokeWidth=1;fillColor=none;align=left;verticalAlign=middle;spacingTop=-1;spacingLeft=3;spacingRight=3;rotatable=0;labelPosition=right;points=[];portConstraint=eastwest;strokeColor=inherit;" vertex="1" parent="113">
                    <mxGeometry y="26" width="176" height="8" as="geometry"/>
                </mxCell>
                <mxCell id="115" value="+ __init__(peso_alimento)" style="text;strokeColor=none;fillColor=none;align=left;verticalAlign=top;spacingLeft=4;spacingRight=4;overflow=hidden;rotatable=0;points=[[0,0.5],[1,0.5]];portConstraint=eastwest;whiteSpace=wrap;html=1;" vertex="1" parent="113">
                    <mxGeometry y="34" width="176" height="30" as="geometry"/>
                </mxCell>
                <mxCell id="116" style="rounded=0;orthogonalLoop=1;jettySize=auto;html=1;exitX=0.5;exitY=0;exitDx=0;exitDy=0;entryX=1;entryY=0.5;entryDx=0;entryDy=0;endArrow=block;endFill=0;" edge="1" parent="1" source="117">
                    <mxGeometry relative="1" as="geometry">
                        <mxPoint x="805" y="561" as="targetPoint"/>
                    </mxGeometry>
                </mxCell>
                <mxCell id="117" value="Verdura" style="swimlane;fontStyle=1;align=center;verticalAlign=top;childLayout=stackLayout;horizontal=1;startSize=26;horizontalStack=0;resizeParent=1;resizeParentMax=0;resizeLast=0;collapsible=1;marginBottom=0;whiteSpace=wrap;html=1;" vertex="1" parent="1">
                    <mxGeometry x="885" y="610" width="176" height="64" as="geometry"/>
                </mxCell>
                <mxCell id="118" value="" style="line;strokeWidth=1;fillColor=none;align=left;verticalAlign=middle;spacingTop=-1;spacingLeft=3;spacingRight=3;rotatable=0;labelPosition=right;points=[];portConstraint=eastwest;strokeColor=inherit;" vertex="1" parent="117">
                    <mxGeometry y="26" width="176" height="8" as="geometry"/>
                </mxCell>
                <mxCell id="119" value="+&amp;nbsp;" style="text;strokeColor=none;fillColor=none;align=left;verticalAlign=top;spacingLeft=4;spacingRight=4;overflow=hidden;rotatable=0;points=[[0,0.5],[1,0.5]];portConstraint=eastwest;whiteSpace=wrap;html=1;" vertex="1" parent="117">
                    <mxGeometry y="34" width="176" height="30" as="geometry"/>
                </mxCell>
                <mxCell id="120" value="CajÃ³n" style="swimlane;fontStyle=1;align=center;verticalAlign=top;childLayout=stackLayout;horizontal=1;startSize=26;horizontalStack=0;resizeParent=1;resizeParentMax=0;resizeLast=0;collapsible=1;marginBottom=0;whiteSpace=wrap;html=1;" vertex="1" parent="1">
                    <mxGeometry x="1030" y="316" width="200" height="142" as="geometry"/>
                </mxCell>
                <mxCell id="121" value="- n_elementos" style="text;strokeColor=none;fillColor=none;align=left;verticalAlign=top;spacingLeft=4;spacingRight=4;overflow=hidden;rotatable=0;points=[[0,0.5],[1,0.5]];portConstraint=eastwest;whiteSpace=wrap;html=1;" vertex="1" parent="120">
                    <mxGeometry y="26" width="200" height="26" as="geometry"/>
                </mxCell>
                <mxCell id="122" value="" style="line;strokeWidth=1;fillColor=none;align=left;verticalAlign=middle;spacingTop=-1;spacingLeft=3;spacingRight=3;rotatable=0;labelPosition=right;points=[];portConstraint=eastwest;strokeColor=inherit;" vertex="1" parent="120">
                    <mxGeometry y="52" width="200" height="8" as="geometry"/>
                </mxCell>
                <mxCell id="123" value="+ __init__(n_elementos: str)" style="text;strokeColor=none;fillColor=none;align=left;verticalAlign=top;spacingLeft=4;spacingRight=4;overflow=hidden;rotatable=0;points=[[0,0.5],[1,0.5]];portConstraint=eastwest;whiteSpace=wrap;html=1;" vertex="1" parent="120">
                    <mxGeometry y="60" width="200" height="26" as="geometry"/>
                </mxCell>
                <mxCell id="124" value="+ mostrar_contenido()" style="text;strokeColor=none;fillColor=none;align=left;verticalAlign=top;spacingLeft=4;spacingRight=4;overflow=hidden;rotatable=0;points=[[0,0.5],[1,0.5]];portConstraint=eastwest;whiteSpace=wrap;html=1;" vertex="1" parent="120">
                    <mxGeometry y="86" width="200" height="26" as="geometry"/>
                </mxCell>
                <mxCell id="125" value="+ calcular_peso_cajon()" style="text;strokeColor=none;fillColor=none;align=left;verticalAlign=top;spacingLeft=4;spacingRight=4;overflow=hidden;rotatable=0;points=[[0,0.5],[1,0.5]];portConstraint=eastwest;whiteSpace=wrap;html=1;" vertex="1" parent="120">
                    <mxGeometry y="112" width="200" height="30" as="geometry"/>
                </mxCell>
                <mxCell id="126" style="rounded=0;orthogonalLoop=1;jettySize=auto;html=1;exitX=0.5;exitY=0;exitDx=0;exitDy=0;entryX=0.722;entryY=1.005;entryDx=0;entryDy=0;entryPerimeter=0;endArrow=block;endFill=0;" edge="1" parent="1" source="99" target="119">
                    <mxGeometry relative="1" as="geometry"/>
                </mxCell>
                <mxCell id="127" value="agregacion" style="text;html=1;align=center;verticalAlign=middle;resizable=0;points=[];autosize=1;strokeColor=none;fillColor=none;rotation=0;" vertex="1" parent="1">
                    <mxGeometry x="458" y="114" width="80" height="30" as="geometry"/>
                </mxCell>
                <mxCell id="128" style="rounded=0;orthogonalLoop=1;jettySize=auto;html=1;exitX=1;exitY=0.5;exitDx=0;exitDy=0;entryX=0;entryY=0.25;entryDx=0;entryDy=0;endArrow=diamondThin;endFill=0;startSize=6;endSize=16;" edge="1" parent="1" source="67" target="74">
                    <mxGeometry relative="1" as="geometry"/>
                </mxCell>
                <mxCell id="129" value="agregacion" style="text;html=1;align=center;verticalAlign=middle;resizable=0;points=[];autosize=1;strokeColor=none;fillColor=none;rotation=-25;" vertex="1" parent="1">
                    <mxGeometry x="887.9980069813214" y="79.99619504481538" width="80" height="30" as="geometry"/>
                </mxCell>
                <mxCell id="130" value="agregacion" style="text;html=1;align=center;verticalAlign=middle;resizable=0;points=[];autosize=1;strokeColor=none;fillColor=none;rotation=0;" vertex="1" parent="1">
                    <mxGeometry x="921.9980069813214" y="209.99619504481538" width="80" height="30" as="geometry"/>
                </mxCell>
                <mxCell id="131" style="rounded=0;orthogonalLoop=1;jettySize=auto;html=1;exitX=1;exitY=0.5;exitDx=0;exitDy=0;entryX=0;entryY=0;entryDx=0;entryDy=0;startArrow=none;startFill=0;endArrow=diamondThin;startSize=4;endFill=0;endSize=16;" edge="1" parent="1" source="68" target="120">
                    <mxGeometry relative="1" as="geometry"/>
                </mxCell>
                <mxCell id="132" value="&lt;font style=&quot;font-size: 14px;&quot;&gt;dependencia&lt;br&gt;Cinta usa a Alimento&lt;/font&gt;" style="text;html=1;align=center;verticalAlign=middle;resizable=0;points=[];autosize=1;strokeColor=none;fillColor=none;" vertex="1" parent="1">
                    <mxGeometry x="720" y="350" width="150" height="50" as="geometry"/>
                </mxCell>
                <mxCell id="133" style="rounded=0;orthogonalLoop=1;jettySize=auto;html=1;exitX=0;exitY=0.5;exitDx=0;exitDy=0;entryX=0.995;entryY=0.048;entryDx=0;entryDy=0;entryPerimeter=0;endArrow=diamondThin;endFill=0;endSize=16;" edge="1" parent="1" source="67" target="82">
                    <mxGeometry relative="1" as="geometry"/>
                </mxCell>
                <mxCell id="134" value="&lt;font style=&quot;font-size: 18px;&quot;&gt;herencia&lt;/font&gt;" style="text;html=1;align=center;verticalAlign=middle;resizable=0;points=[];autosize=1;strokeColor=none;fillColor=none;" vertex="1" parent="1">
                    <mxGeometry x="665" y="703" width="90" height="40" as="geometry"/>
                </mxCell>
            </root>
        </mxGraphModel>
    </diagram>
    <diagram name="Copia de PÃ¡gina-1" id="l_XNiBEdwN1deiuyCNzJ">
        <mxGraphModel dx="1930" dy="1947" grid="1" gridSize="10" guides="1" tooltips="1" connect="1" arrows="1" fold="1" page="1" pageScale="1" pageWidth="827" pageHeight="1169" math="0" shadow="0">
            <root>
                <mxCell id="FLj8FN6OpA_ZqIxyDJZP-0"/>
                <mxCell id="FLj8FN6OpA_ZqIxyDJZP-1" parent="FLj8FN6OpA_ZqIxyDJZP-0"/>
                <mxCell id="FLj8FN6OpA_ZqIxyDJZP-2" value="&lt;font style=&quot;font-size: 18px; color: rgb(0, 0, 0);&quot;&gt;Cinta&lt;/font&gt;" style="swimlane;fontStyle=1;align=center;verticalAlign=top;childLayout=stackLayout;horizontal=1;startSize=26;horizontalStack=0;resizeParent=1;resizeParentMax=0;resizeLast=0;collapsible=1;marginBottom=0;whiteSpace=wrap;html=1;" parent="FLj8FN6OpA_ZqIxyDJZP-1" vertex="1">
                    <mxGeometry x="700" y="-30" width="220" height="138" as="geometry"/>
                </mxCell>
                <mxCell id="FLj8FN6OpA_ZqIxyDJZP-3" value="- detector" style="text;strokeColor=none;fillColor=none;align=left;verticalAlign=top;spacingLeft=4;spacingRight=4;overflow=hidden;rotatable=0;points=[[0,0.5],[1,0.5]];portConstraint=eastwest;whiteSpace=wrap;html=1;fontSize=15;" parent="FLj8FN6OpA_ZqIxyDJZP-2" vertex="1">
                    <mxGeometry y="26" width="220" height="26" as="geometry"/>
                </mxCell>
                <mxCell id="5b8PzUZu7B2WtOyWg8Ws-1" value="- cajon" style="text;strokeColor=none;fillColor=none;align=left;verticalAlign=top;spacingLeft=4;spacingRight=4;overflow=hidden;rotatable=0;points=[[0,0.5],[1,0.5]];portConstraint=eastwest;whiteSpace=wrap;html=1;fontFamily=Helvetica;fontSize=15;fontColor=default;" parent="FLj8FN6OpA_ZqIxyDJZP-2" vertex="1">
                    <mxGeometry y="52" width="220" height="26" as="geometry"/>
                </mxCell>
                <mxCell id="FLj8FN6OpA_ZqIxyDJZP-4" value="- n_elementos" style="text;strokeColor=none;fillColor=none;align=left;verticalAlign=top;spacingLeft=4;spacingRight=4;overflow=hidden;rotatable=0;points=[[0,0.5],[1,0.5]];portConstraint=eastwest;whiteSpace=wrap;html=1;fontSize=15;" parent="FLj8FN6OpA_ZqIxyDJZP-2" vertex="1">
                    <mxGeometry y="78" width="220" height="26" as="geometry"/>
                </mxCell>
                <mxCell id="FLj8FN6OpA_ZqIxyDJZP-5" value="" style="line;strokeWidth=1;fillColor=none;align=left;verticalAlign=middle;spacingTop=-1;spacingLeft=3;spacingRight=3;rotatable=0;labelPosition=right;points=[];portConstraint=eastwest;strokeColor=inherit;" parent="FLj8FN6OpA_ZqIxyDJZP-2" vertex="1">
                    <mxGeometry y="104" width="220" height="8" as="geometry"/>
                </mxCell>
                <mxCell id="FLj8FN6OpA_ZqIxyDJZP-6" value="+ method(type): type" style="text;strokeColor=none;fillColor=none;align=left;verticalAlign=top;spacingLeft=4;spacingRight=4;overflow=hidden;rotatable=0;points=[[0,0.5],[1,0.5]];portConstraint=eastwest;whiteSpace=wrap;html=1;fontSize=15;" parent="FLj8FN6OpA_ZqIxyDJZP-2" vertex="1">
                    <mxGeometry y="112" width="220" height="26" as="geometry"/>
                </mxCell>
                <mxCell id="FLj8FN6OpA_ZqIxyDJZP-8" value="&lt;font style=&quot;font-size: 18px; color: rgb(0, 0, 0);&quot;&gt;DetectorAlimento&lt;/font&gt;" style="swimlane;fontStyle=1;align=center;verticalAlign=top;childLayout=stackLayout;horizontal=1;startSize=26;horizontalStack=0;resizeParent=1;resizeParentMax=0;resizeLast=0;collapsible=1;marginBottom=0;whiteSpace=wrap;html=1;strokeColor=default;fontFamily=Helvetica;fontSize=15;fontColor=default;fillColor=default;" parent="FLj8FN6OpA_ZqIxyDJZP-1" vertex="1">
                    <mxGeometry x="420" y="264" width="160" height="78" as="geometry"/>
                </mxCell>
                <mxCell id="FLj8FN6OpA_ZqIxyDJZP-9" value="+ detectar_alimento" style="text;strokeColor=none;fillColor=none;align=left;verticalAlign=top;spacingLeft=4;spacingRight=4;overflow=hidden;rotatable=0;points=[[0,0.5],[1,0.5]];portConstraint=eastwest;whiteSpace=wrap;html=1;fontFamily=Helvetica;fontSize=14;fontColor=default;fontStyle=0;" parent="FLj8FN6OpA_ZqIxyDJZP-8" vertex="1">
                    <mxGeometry y="26" width="160" height="26" as="geometry"/>
                </mxCell>
                <mxCell id="5b8PzUZu7B2WtOyWg8Ws-2" value="+ detectar_peso" style="text;strokeColor=none;fillColor=none;align=left;verticalAlign=top;spacingLeft=4;spacingRight=4;overflow=hidden;rotatable=0;points=[[0,0.5],[1,0.5]];portConstraint=eastwest;whiteSpace=wrap;html=1;fontFamily=Helvetica;fontSize=14;fontColor=default;fontStyle=0;" parent="FLj8FN6OpA_ZqIxyDJZP-8" vertex="1">
                    <mxGeometry y="52" width="160" height="26" as="geometry"/>
                </mxCell>
                <mxCell id="FLj8FN6OpA_ZqIxyDJZP-11" value="&lt;font style=&quot;font-size: 18px; color: rgb(0, 0, 0);&quot;&gt;CalculadorBromatologico&lt;/font&gt;" style="swimlane;fontStyle=1;align=center;verticalAlign=top;childLayout=stackLayout;horizontal=1;startSize=26;horizontalStack=0;resizeParent=1;resizeParentMax=0;resizeLast=0;collapsible=1;marginBottom=0;whiteSpace=wrap;html=1;" parent="FLj8FN6OpA_ZqIxyDJZP-1" vertex="1">
                    <mxGeometry x="1055" y="160" width="245" height="104" as="geometry"/>
                </mxCell>
                <mxCell id="FLj8FN6OpA_ZqIxyDJZP-13" value="+ calcular_aw_prom_alimento" style="text;strokeColor=none;fillColor=none;align=left;verticalAlign=top;spacingLeft=4;spacingRight=4;overflow=hidden;rotatable=0;points=[[0,0.5],[1,0.5]];portConstraint=eastwest;whiteSpace=wrap;html=1;" parent="FLj8FN6OpA_ZqIxyDJZP-11" vertex="1">
                    <mxGeometry y="26" width="245" height="26" as="geometry"/>
                </mxCell>
                <mxCell id="FLj8FN6OpA_ZqIxyDJZP-14" value="+ calcular_aw_prom_tipo_alimento" style="text;strokeColor=none;fillColor=none;align=left;verticalAlign=top;spacingLeft=4;spacingRight=4;overflow=hidden;rotatable=0;points=[[0,0.5],[1,0.5]];portConstraint=eastwest;whiteSpace=wrap;html=1;" parent="FLj8FN6OpA_ZqIxyDJZP-11" vertex="1">
                    <mxGeometry y="52" width="245" height="26" as="geometry"/>
                </mxCell>
                <mxCell id="FLj8FN6OpA_ZqIxyDJZP-15" value="+ calcular_aw_prom_total" style="text;strokeColor=none;fillColor=none;align=left;verticalAlign=top;spacingLeft=4;spacingRight=4;overflow=hidden;rotatable=0;points=[[0,0.5],[1,0.5]];portConstraint=eastwest;whiteSpace=wrap;html=1;" parent="FLj8FN6OpA_ZqIxyDJZP-11" vertex="1">
                    <mxGeometry y="78" width="245" height="26" as="geometry"/>
                </mxCell>
                <mxCell id="FLj8FN6OpA_ZqIxyDJZP-16" value="Plantilla" style="swimlane;fontStyle=1;align=center;verticalAlign=top;childLayout=stackLayout;horizontal=1;startSize=26;horizontalStack=0;resizeParent=1;resizeParentMax=0;resizeLast=0;collapsible=1;marginBottom=0;whiteSpace=wrap;html=1;" parent="FLj8FN6OpA_ZqIxyDJZP-1" vertex="1">
                    <mxGeometry x="-20" y="960" width="176" height="194" as="geometry"/>
                </mxCell>
                <mxCell id="FLj8FN6OpA_ZqIxyDJZP-17" value="-&amp;nbsp;" style="text;strokeColor=none;fillColor=none;align=left;verticalAlign=top;spacingLeft=4;spacingRight=4;overflow=hidden;rotatable=0;points=[[0,0.5],[1,0.5]];portConstraint=eastwest;whiteSpace=wrap;html=1;" parent="FLj8FN6OpA_ZqIxyDJZP-16" vertex="1">
                    <mxGeometry y="26" width="176" height="26" as="geometry"/>
                </mxCell>
                <mxCell id="FLj8FN6OpA_ZqIxyDJZP-18" value="-&amp;nbsp;" style="text;strokeColor=none;fillColor=none;align=left;verticalAlign=top;spacingLeft=4;spacingRight=4;overflow=hidden;rotatable=0;points=[[0,0.5],[1,0.5]];portConstraint=eastwest;whiteSpace=wrap;html=1;" parent="FLj8FN6OpA_ZqIxyDJZP-16" vertex="1">
                    <mxGeometry y="52" width="176" height="26" as="geometry"/>
                </mxCell>
                <mxCell id="FLj8FN6OpA_ZqIxyDJZP-19" value="-&amp;nbsp;" style="text;strokeColor=none;fillColor=none;align=left;verticalAlign=top;spacingLeft=4;spacingRight=4;overflow=hidden;rotatable=0;points=[[0,0.5],[1,0.5]];portConstraint=eastwest;whiteSpace=wrap;html=1;" parent="FLj8FN6OpA_ZqIxyDJZP-16" vertex="1">
                    <mxGeometry y="78" width="176" height="26" as="geometry"/>
                </mxCell>
                <mxCell id="FLj8FN6OpA_ZqIxyDJZP-20" value="-&amp;nbsp;" style="text;strokeColor=none;fillColor=none;align=left;verticalAlign=top;spacingLeft=4;spacingRight=4;overflow=hidden;rotatable=0;points=[[0,0.5],[1,0.5]];portConstraint=eastwest;whiteSpace=wrap;html=1;" parent="FLj8FN6OpA_ZqIxyDJZP-16" vertex="1">
                    <mxGeometry y="104" width="176" height="26" as="geometry"/>
                </mxCell>
                <mxCell id="FLj8FN6OpA_ZqIxyDJZP-21" value="" style="line;strokeWidth=1;fillColor=none;align=left;verticalAlign=middle;spacingTop=-1;spacingLeft=3;spacingRight=3;rotatable=0;labelPosition=right;points=[];portConstraint=eastwest;strokeColor=inherit;" parent="FLj8FN6OpA_ZqIxyDJZP-16" vertex="1">
                    <mxGeometry y="130" width="176" height="8" as="geometry"/>
                </mxCell>
                <mxCell id="FLj8FN6OpA_ZqIxyDJZP-22" value="+&amp;nbsp;" style="text;strokeColor=none;fillColor=none;align=left;verticalAlign=top;spacingLeft=4;spacingRight=4;overflow=hidden;rotatable=0;points=[[0,0.5],[1,0.5]];portConstraint=eastwest;whiteSpace=wrap;html=1;" parent="FLj8FN6OpA_ZqIxyDJZP-16" vertex="1">
                    <mxGeometry y="138" width="176" height="26" as="geometry"/>
                </mxCell>
                <mxCell id="FLj8FN6OpA_ZqIxyDJZP-23" value="+&amp;nbsp;" style="text;strokeColor=none;fillColor=none;align=left;verticalAlign=top;spacingLeft=4;spacingRight=4;overflow=hidden;rotatable=0;points=[[0,0.5],[1,0.5]];portConstraint=eastwest;whiteSpace=wrap;html=1;" parent="FLj8FN6OpA_ZqIxyDJZP-16" vertex="1">
                    <mxGeometry y="164" width="176" height="30" as="geometry"/>
                </mxCell>
                <mxCell id="FLj8FN6OpA_ZqIxyDJZP-24" style="rounded=0;orthogonalLoop=1;jettySize=auto;html=1;exitX=0.5;exitY=0;exitDx=0;exitDy=0;entryX=0.691;entryY=0.997;entryDx=0;entryDy=0;entryPerimeter=0;endArrow=block;endFill=0;endSize=15;" parent="FLj8FN6OpA_ZqIxyDJZP-1" source="FLj8FN6OpA_ZqIxyDJZP-25" target="FLj8FN6OpA_ZqIxyDJZP-50" edge="1">
                    <mxGeometry relative="1" as="geometry">
                        <mxPoint x="550" y="370" as="targetPoint"/>
                    </mxGeometry>
                </mxCell>
                <mxCell id="FLj8FN6OpA_ZqIxyDJZP-25" value="&lt;font style=&quot;font-size: 18px; color: rgb(0, 0, 0);&quot;&gt;Manzana&lt;/font&gt;" style="swimlane;fontStyle=1;align=center;verticalAlign=top;childLayout=stackLayout;horizontal=1;startSize=26;horizontalStack=0;resizeParent=1;resizeParentMax=0;resizeLast=0;collapsible=1;marginBottom=0;whiteSpace=wrap;html=1;" parent="FLj8FN6OpA_ZqIxyDJZP-1" vertex="1">
                    <mxGeometry x="770" y="910" width="190" height="64" as="geometry"/>
                </mxCell>
                <mxCell id="FLj8FN6OpA_ZqIxyDJZP-26" value="" style="line;strokeWidth=1;fillColor=none;align=left;verticalAlign=middle;spacingTop=-1;spacingLeft=3;spacingRight=3;rotatable=0;labelPosition=right;points=[];portConstraint=eastwest;strokeColor=inherit;" parent="FLj8FN6OpA_ZqIxyDJZP-25" vertex="1">
                    <mxGeometry y="26" width="190" height="8" as="geometry"/>
                </mxCell>
                <mxCell id="FLj8FN6OpA_ZqIxyDJZP-27" value="+&amp;nbsp;" style="text;strokeColor=none;fillColor=none;align=left;verticalAlign=top;spacingLeft=4;spacingRight=4;overflow=hidden;rotatable=0;points=[[0,0.5],[1,0.5]];portConstraint=eastwest;whiteSpace=wrap;html=1;" parent="FLj8FN6OpA_ZqIxyDJZP-25" vertex="1">
                    <mxGeometry y="34" width="190" height="30" as="geometry"/>
                </mxCell>
                <mxCell id="FLj8FN6OpA_ZqIxyDJZP-28" style="rounded=0;orthogonalLoop=1;jettySize=auto;html=1;exitX=0.5;exitY=0;exitDx=0;exitDy=0;entryX=0.215;entryY=1.038;entryDx=0;entryDy=0;entryPerimeter=0;endArrow=block;endFill=0;endSize=15;" parent="FLj8FN6OpA_ZqIxyDJZP-1" source="FLj8FN6OpA_ZqIxyDJZP-29" target="FLj8FN6OpA_ZqIxyDJZP-54" edge="1">
                    <mxGeometry relative="1" as="geometry">
                        <mxPoint x="820" y="340" as="targetPoint"/>
                    </mxGeometry>
                </mxCell>
                <mxCell id="FLj8FN6OpA_ZqIxyDJZP-29" value="&lt;font style=&quot;font-size: 18px; color: rgb(0, 0, 0);&quot;&gt;Papa&lt;/font&gt;" style="swimlane;fontStyle=1;align=center;verticalAlign=top;childLayout=stackLayout;horizontal=1;startSize=26;horizontalStack=0;resizeParent=1;resizeParentMax=0;resizeLast=0;collapsible=1;marginBottom=0;whiteSpace=wrap;html=1;" parent="FLj8FN6OpA_ZqIxyDJZP-1" vertex="1">
                    <mxGeometry x="1110" y="910" width="176" height="64" as="geometry"/>
                </mxCell>
                <mxCell id="FLj8FN6OpA_ZqIxyDJZP-30" value="" style="line;strokeWidth=1;fillColor=none;align=left;verticalAlign=middle;spacingTop=-1;spacingLeft=3;spacingRight=3;rotatable=0;labelPosition=right;points=[];portConstraint=eastwest;strokeColor=inherit;" parent="FLj8FN6OpA_ZqIxyDJZP-29" vertex="1">
                    <mxGeometry y="26" width="176" height="8" as="geometry"/>
                </mxCell>
                <mxCell id="FLj8FN6OpA_ZqIxyDJZP-31" value="+&amp;nbsp;" style="text;strokeColor=none;fillColor=none;align=left;verticalAlign=top;spacingLeft=4;spacingRight=4;overflow=hidden;rotatable=0;points=[[0,0.5],[1,0.5]];portConstraint=eastwest;whiteSpace=wrap;html=1;" parent="FLj8FN6OpA_ZqIxyDJZP-29" vertex="1">
                    <mxGeometry y="34" width="176" height="30" as="geometry"/>
                </mxCell>
                <mxCell id="FLj8FN6OpA_ZqIxyDJZP-32" value="&lt;font style=&quot;font-size: 18px; color: rgb(0, 0, 0);&quot;&gt;Zanahoria&lt;/font&gt;" style="swimlane;fontStyle=1;align=center;verticalAlign=top;childLayout=stackLayout;horizontal=1;startSize=26;horizontalStack=0;resizeParent=1;resizeParentMax=0;resizeLast=0;collapsible=1;marginBottom=0;whiteSpace=wrap;html=1;" parent="FLj8FN6OpA_ZqIxyDJZP-1" vertex="1">
                    <mxGeometry x="1520" y="910" width="176" height="64" as="geometry"/>
                </mxCell>
                <mxCell id="FLj8FN6OpA_ZqIxyDJZP-33" value="" style="line;strokeWidth=1;fillColor=none;align=left;verticalAlign=middle;spacingTop=-1;spacingLeft=3;spacingRight=3;rotatable=0;labelPosition=right;points=[];portConstraint=eastwest;strokeColor=inherit;" parent="FLj8FN6OpA_ZqIxyDJZP-32" vertex="1">
                    <mxGeometry y="26" width="176" height="8" as="geometry"/>
                </mxCell>
                <mxCell id="FLj8FN6OpA_ZqIxyDJZP-34" value="+&amp;nbsp;" style="text;strokeColor=none;fillColor=none;align=left;verticalAlign=top;spacingLeft=4;spacingRight=4;overflow=hidden;rotatable=0;points=[[0,0.5],[1,0.5]];portConstraint=eastwest;whiteSpace=wrap;html=1;" parent="FLj8FN6OpA_ZqIxyDJZP-32" vertex="1">
                    <mxGeometry y="34" width="176" height="30" as="geometry"/>
                </mxCell>
                <mxCell id="FLj8FN6OpA_ZqIxyDJZP-35" style="rounded=0;orthogonalLoop=1;jettySize=auto;html=1;exitX=0.5;exitY=0;exitDx=0;exitDy=0;entryX=0.243;entryY=1.024;entryDx=0;entryDy=0;entryPerimeter=0;endArrow=block;endFill=0;endSize=15;" parent="FLj8FN6OpA_ZqIxyDJZP-1" source="FLj8FN6OpA_ZqIxyDJZP-36" target="FLj8FN6OpA_ZqIxyDJZP-50" edge="1">
                    <mxGeometry relative="1" as="geometry">
                        <mxPoint x="500" y="400" as="targetPoint"/>
                    </mxGeometry>
                </mxCell>
                <mxCell id="FLj8FN6OpA_ZqIxyDJZP-36" value="&lt;font style=&quot;font-size: 18px; color: rgb(0, 0, 0);&quot;&gt;Kiwi&lt;/font&gt;&lt;div&gt;&lt;br&gt;&lt;/div&gt;" style="swimlane;fontStyle=1;align=center;verticalAlign=top;childLayout=stackLayout;horizontal=1;startSize=26;horizontalStack=0;resizeParent=1;resizeParentMax=0;resizeLast=0;collapsible=1;marginBottom=0;whiteSpace=wrap;html=1;" parent="FLj8FN6OpA_ZqIxyDJZP-1" vertex="1">
                    <mxGeometry x="530" y="910" width="176" height="64" as="geometry"/>
                </mxCell>
                <mxCell id="FLj8FN6OpA_ZqIxyDJZP-37" value="" style="line;strokeWidth=1;fillColor=none;align=left;verticalAlign=middle;spacingTop=-1;spacingLeft=3;spacingRight=3;rotatable=0;labelPosition=right;points=[];portConstraint=eastwest;strokeColor=inherit;" parent="FLj8FN6OpA_ZqIxyDJZP-36" vertex="1">
                    <mxGeometry y="26" width="176" height="8" as="geometry"/>
                </mxCell>
                <mxCell id="FLj8FN6OpA_ZqIxyDJZP-38" value="+&amp;nbsp;" style="text;strokeColor=none;fillColor=none;align=left;verticalAlign=top;spacingLeft=4;spacingRight=4;overflow=hidden;rotatable=0;points=[[0,0.5],[1,0.5]];portConstraint=eastwest;whiteSpace=wrap;html=1;" parent="FLj8FN6OpA_ZqIxyDJZP-36" vertex="1">
                    <mxGeometry y="34" width="176" height="30" as="geometry"/>
                </mxCell>
                <mxCell id="FLj8FN6OpA_ZqIxyDJZP-39" value="&lt;font style=&quot;font-size: 18px; color: rgb(0, 0, 0);&quot;&gt;Alimento&lt;/font&gt;" style="swimlane;fontStyle=1;align=center;verticalAlign=top;childLayout=stackLayout;horizontal=1;startSize=26;horizontalStack=0;resizeParent=1;resizeParentMax=0;resizeLast=0;collapsible=1;marginBottom=0;whiteSpace=wrap;html=1;" parent="FLj8FN6OpA_ZqIxyDJZP-1" vertex="1">
                    <mxGeometry x="974" y="380" width="190" height="194" as="geometry"/>
                </mxCell>
                <mxCell id="FLj8FN6OpA_ZqIxyDJZP-40" value="- peso_alimento" style="text;strokeColor=none;fillColor=none;align=left;verticalAlign=top;spacingLeft=4;spacingRight=4;overflow=hidden;rotatable=0;points=[[0,0.5],[1,0.5]];portConstraint=eastwest;whiteSpace=wrap;html=1;" parent="FLj8FN6OpA_ZqIxyDJZP-39" vertex="1">
                    <mxGeometry y="26" width="190" height="26" as="geometry"/>
                </mxCell>
                <mxCell id="FLj8FN6OpA_ZqIxyDJZP-41" value="-&amp;nbsp;" style="text;strokeColor=none;fillColor=none;align=left;verticalAlign=top;spacingLeft=4;spacingRight=4;overflow=hidden;rotatable=0;points=[[0,0.5],[1,0.5]];portConstraint=eastwest;whiteSpace=wrap;html=1;" parent="FLj8FN6OpA_ZqIxyDJZP-39" vertex="1">
                    <mxGeometry y="52" width="190" height="26" as="geometry"/>
                </mxCell>
                <mxCell id="FLj8FN6OpA_ZqIxyDJZP-42" value="-&amp;nbsp;" style="text;strokeColor=none;fillColor=none;align=left;verticalAlign=top;spacingLeft=4;spacingRight=4;overflow=hidden;rotatable=0;points=[[0,0.5],[1,0.5]];portConstraint=eastwest;whiteSpace=wrap;html=1;" parent="FLj8FN6OpA_ZqIxyDJZP-39" vertex="1">
                    <mxGeometry y="78" width="190" height="26" as="geometry"/>
                </mxCell>
                <mxCell id="FLj8FN6OpA_ZqIxyDJZP-43" value="-&amp;nbsp;" style="text;strokeColor=none;fillColor=none;align=left;verticalAlign=top;spacingLeft=4;spacingRight=4;overflow=hidden;rotatable=0;points=[[0,0.5],[1,0.5]];portConstraint=eastwest;whiteSpace=wrap;html=1;" parent="FLj8FN6OpA_ZqIxyDJZP-39" vertex="1">
                    <mxGeometry y="104" width="190" height="26" as="geometry"/>
                </mxCell>
                <mxCell id="FLj8FN6OpA_ZqIxyDJZP-44" value="" style="line;strokeWidth=1;fillColor=none;align=left;verticalAlign=middle;spacingTop=-1;spacingLeft=3;spacingRight=3;rotatable=0;labelPosition=right;points=[];portConstraint=eastwest;strokeColor=inherit;" parent="FLj8FN6OpA_ZqIxyDJZP-39" vertex="1">
                    <mxGeometry y="130" width="190" height="8" as="geometry"/>
                </mxCell>
                <mxCell id="FLj8FN6OpA_ZqIxyDJZP-45" value="+ calcular_peso_total()" style="text;strokeColor=none;fillColor=none;align=left;verticalAlign=top;spacingLeft=4;spacingRight=4;overflow=hidden;rotatable=0;points=[[0,0.5],[1,0.5]];portConstraint=eastwest;whiteSpace=wrap;html=1;" parent="FLj8FN6OpA_ZqIxyDJZP-39" vertex="1">
                    <mxGeometry y="138" width="190" height="26" as="geometry"/>
                </mxCell>
                <mxCell id="FLj8FN6OpA_ZqIxyDJZP-46" value="+ calcular_promedio_aw_total()" style="text;strokeColor=none;fillColor=none;align=left;verticalAlign=top;spacingLeft=4;spacingRight=4;overflow=hidden;rotatable=0;points=[[0,0.5],[1,0.5]];portConstraint=eastwest;whiteSpace=wrap;html=1;" parent="FLj8FN6OpA_ZqIxyDJZP-39" vertex="1">
                    <mxGeometry y="164" width="190" height="30" as="geometry"/>
                </mxCell>
                <mxCell id="FLj8FN6OpA_ZqIxyDJZP-47" style="rounded=0;orthogonalLoop=1;jettySize=auto;html=1;exitX=0.5;exitY=0;exitDx=0;exitDy=0;entryX=0;entryY=0.5;entryDx=0;entryDy=0;endArrow=block;endFill=0;endSize=15;" parent="FLj8FN6OpA_ZqIxyDJZP-1" source="FLj8FN6OpA_ZqIxyDJZP-48" target="FLj8FN6OpA_ZqIxyDJZP-42" edge="1">
                    <mxGeometry relative="1" as="geometry"/>
                </mxCell>
                <mxCell id="FLj8FN6OpA_ZqIxyDJZP-48" value="&lt;font style=&quot;font-size: 18px; color: rgb(0, 0, 0);&quot;&gt;Fruta&lt;/font&gt;" style="swimlane;fontStyle=1;align=center;verticalAlign=top;childLayout=stackLayout;horizontal=1;startSize=26;horizontalStack=0;resizeParent=1;resizeParentMax=0;resizeLast=0;collapsible=1;marginBottom=0;whiteSpace=wrap;html=1;" parent="FLj8FN6OpA_ZqIxyDJZP-1" vertex="1">
                    <mxGeometry x="668" y="670" width="176" height="64" as="geometry"/>
                </mxCell>
                <mxCell id="FLj8FN6OpA_ZqIxyDJZP-49" value="" style="line;strokeWidth=1;fillColor=none;align=left;verticalAlign=middle;spacingTop=-1;spacingLeft=3;spacingRight=3;rotatable=0;labelPosition=right;points=[];portConstraint=eastwest;strokeColor=inherit;" parent="FLj8FN6OpA_ZqIxyDJZP-48" vertex="1">
                    <mxGeometry y="26" width="176" height="8" as="geometry"/>
                </mxCell>
                <mxCell id="FLj8FN6OpA_ZqIxyDJZP-50" value="+&amp;nbsp;" style="text;strokeColor=none;fillColor=none;align=left;verticalAlign=top;spacingLeft=4;spacingRight=4;overflow=hidden;rotatable=0;points=[[0,0.5],[1,0.5]];portConstraint=eastwest;whiteSpace=wrap;html=1;" parent="FLj8FN6OpA_ZqIxyDJZP-48" vertex="1">
                    <mxGeometry y="34" width="176" height="30" as="geometry"/>
                </mxCell>
                <mxCell id="FLj8FN6OpA_ZqIxyDJZP-51" style="rounded=0;orthogonalLoop=1;jettySize=auto;html=1;exitX=0.5;exitY=0;exitDx=0;exitDy=0;entryX=1;entryY=0.5;entryDx=0;entryDy=0;endArrow=block;endFill=0;endSize=15;" parent="FLj8FN6OpA_ZqIxyDJZP-1" source="FLj8FN6OpA_ZqIxyDJZP-52" target="FLj8FN6OpA_ZqIxyDJZP-42" edge="1">
                    <mxGeometry relative="1" as="geometry"/>
                </mxCell>
                <mxCell id="FLj8FN6OpA_ZqIxyDJZP-52" value="&lt;font style=&quot;font-size: 18px; color: rgb(0, 0, 0);&quot;&gt;Verdura&lt;/font&gt;" style="swimlane;fontStyle=1;align=center;verticalAlign=top;childLayout=stackLayout;horizontal=1;startSize=26;horizontalStack=0;resizeParent=1;resizeParentMax=0;resizeLast=0;collapsible=1;marginBottom=0;whiteSpace=wrap;html=1;" parent="FLj8FN6OpA_ZqIxyDJZP-1" vertex="1">
                    <mxGeometry x="1322" y="680" width="176" height="64" as="geometry"/>
                </mxCell>
                <mxCell id="FLj8FN6OpA_ZqIxyDJZP-53" value="" style="line;strokeWidth=1;fillColor=none;align=left;verticalAlign=middle;spacingTop=-1;spacingLeft=3;spacingRight=3;rotatable=0;labelPosition=right;points=[];portConstraint=eastwest;strokeColor=inherit;" parent="FLj8FN6OpA_ZqIxyDJZP-52" vertex="1">
                    <mxGeometry y="26" width="176" height="8" as="geometry"/>
                </mxCell>
                <mxCell id="FLj8FN6OpA_ZqIxyDJZP-54" value="+&amp;nbsp;" style="text;strokeColor=none;fillColor=none;align=left;verticalAlign=top;spacingLeft=4;spacingRight=4;overflow=hidden;rotatable=0;points=[[0,0.5],[1,0.5]];portConstraint=eastwest;whiteSpace=wrap;html=1;" parent="FLj8FN6OpA_ZqIxyDJZP-52" vertex="1">
                    <mxGeometry y="34" width="176" height="30" as="geometry"/>
                </mxCell>
                <mxCell id="FLj8FN6OpA_ZqIxyDJZP-55" value="&lt;font style=&quot;font-size: 18px; color: rgb(0, 0, 0);&quot;&gt;CajÃ³n&lt;/font&gt;" style="swimlane;fontStyle=1;align=center;verticalAlign=top;childLayout=stackLayout;horizontal=1;startSize=26;horizontalStack=0;resizeParent=1;resizeParentMax=0;resizeLast=0;collapsible=1;marginBottom=0;whiteSpace=wrap;html=1;strokeColor=default;fontFamily=Helvetica;fontSize=12;fontColor=default;fillColor=default;" parent="FLj8FN6OpA_ZqIxyDJZP-1" vertex="1">
                    <mxGeometry x="1158" y="-168" width="200" height="168" as="geometry"/>
                </mxCell>
                <mxCell id="FLj8FN6OpA_ZqIxyDJZP-56" value="- n_alimentos" style="text;strokeColor=none;fillColor=none;align=left;verticalAlign=top;spacingLeft=4;spacingRight=4;overflow=hidden;rotatable=0;points=[[0,0.5],[1,0.5]];portConstraint=eastwest;whiteSpace=wrap;html=1;fontFamily=Helvetica;fontSize=15;fontColor=default;fontStyle=0;" parent="FLj8FN6OpA_ZqIxyDJZP-55" vertex="1">
                    <mxGeometry y="26" width="200" height="26" as="geometry"/>
                </mxCell>
                <mxCell id="FLj8FN6OpA_ZqIxyDJZP-58" value="" style="line;strokeWidth=1;fillColor=default;align=center;verticalAlign=top;spacingTop=-1;spacingLeft=3;spacingRight=3;rotatable=0;labelPosition=right;points=[];portConstraint=eastwest;strokeColor=default;fontFamily=Helvetica;fontSize=12;fontColor=default;fontStyle=1;" parent="FLj8FN6OpA_ZqIxyDJZP-55" vertex="1">
                    <mxGeometry y="52" width="200" height="8" as="geometry"/>
                </mxCell>
                <mxCell id="FLj8FN6OpA_ZqIxyDJZP-59" value="+ agregar_alimento()" style="text;strokeColor=none;fillColor=none;align=left;verticalAlign=top;spacingLeft=4;spacingRight=4;overflow=hidden;rotatable=0;points=[[0,0.5],[1,0.5]];portConstraint=eastwest;whiteSpace=wrap;html=1;fontFamily=Helvetica;fontSize=15;fontColor=default;fontStyle=0;" parent="FLj8FN6OpA_ZqIxyDJZP-55" vertex="1">
                    <mxGeometry y="60" width="200" height="26" as="geometry"/>
                </mxCell>
                <mxCell id="FLj8FN6OpA_ZqIxyDJZP-60" value="+ calcular_peso_cajon()" style="text;strokeColor=none;fillColor=none;align=left;verticalAlign=top;spacingLeft=4;spacingRight=4;overflow=hidden;rotatable=0;points=[[0,0.5],[1,0.5]];portConstraint=eastwest;whiteSpace=wrap;html=1;fontFamily=Helvetica;fontSize=15;fontColor=default;fontStyle=0;" parent="FLj8FN6OpA_ZqIxyDJZP-55" vertex="1">
                    <mxGeometry y="86" width="200" height="30" as="geometry"/>
                </mxCell>
                <mxCell id="FLj8FN6OpA_ZqIxyDJZP-61" value="+ obtener_contenido()" style="text;strokeColor=none;fillColor=none;align=left;verticalAlign=top;spacingLeft=4;spacingRight=4;overflow=hidden;rotatable=0;points=[[0,0.5],[1,0.5]];portConstraint=eastwest;whiteSpace=wrap;html=1;fontFamily=Helvetica;fontSize=15;fontColor=default;fontStyle=0;" parent="FLj8FN6OpA_ZqIxyDJZP-55" vertex="1">
                    <mxGeometry y="116" width="200" height="26" as="geometry"/>
                </mxCell>
                <mxCell id="FLj8FN6OpA_ZqIxyDJZP-62" value="+ preparar_transporte()" style="text;strokeColor=none;fillColor=none;align=left;verticalAlign=top;spacingLeft=4;spacingRight=4;overflow=hidden;rotatable=0;points=[[0,0.5],[1,0.5]];portConstraint=eastwest;whiteSpace=wrap;html=1;fontFamily=Helvetica;fontSize=15;fontColor=default;fontStyle=0;" parent="FLj8FN6OpA_ZqIxyDJZP-55" vertex="1">
                    <mxGeometry y="142" width="200" height="26" as="geometry"/>
                </mxCell>
                <mxCell id="FLj8FN6OpA_ZqIxyDJZP-63" style="rounded=0;orthogonalLoop=1;jettySize=auto;html=1;entryX=0.722;entryY=1.005;entryDx=0;entryDy=0;entryPerimeter=0;endArrow=block;endFill=0;exitX=0.5;exitY=0;exitDx=0;exitDy=0;endSize=15;" parent="FLj8FN6OpA_ZqIxyDJZP-1" source="FLj8FN6OpA_ZqIxyDJZP-32" target="FLj8FN6OpA_ZqIxyDJZP-54" edge="1">
                    <mxGeometry relative="1" as="geometry">
                        <mxPoint x="1278" y="620" as="sourcePoint"/>
                    </mxGeometry>
                </mxCell>
                <mxCell id="5b8PzUZu7B2WtOyWg8Ws-4" value="AGREGACION" style="text;html=1;align=center;verticalAlign=middle;resizable=0;points=[];autosize=1;strokeColor=none;fillColor=none;rotation=-45;fontSize=17;" parent="FLj8FN6OpA_ZqIxyDJZP-1" vertex="1">
                    <mxGeometry x="490" y="160" width="140" height="30" as="geometry"/>
                </mxCell>
                <mxCell id="5b8PzUZu7B2WtOyWg8Ws-5" style="edgeStyle=none;html=1;exitX=1;exitY=0.5;exitDx=0;exitDy=0;entryX=0;entryY=0;entryDx=0;entryDy=0;endArrow=diamondThin;endFill=0;endSize=22;" parent="FLj8FN6OpA_ZqIxyDJZP-1" source="FLj8FN6OpA_ZqIxyDJZP-3" target="FLj8FN6OpA_ZqIxyDJZP-55" edge="1">
                    <mxGeometry relative="1" as="geometry"/>
                </mxCell>
                <mxCell id="5b8PzUZu7B2WtOyWg8Ws-8" style="edgeStyle=none;html=1;exitX=0.5;exitY=0;exitDx=0;exitDy=0;entryX=-0.001;entryY=0.995;entryDx=0;entryDy=0;entryPerimeter=0;endArrow=diamondThin;endFill=0;endSize=20;" parent="FLj8FN6OpA_ZqIxyDJZP-1" source="FLj8FN6OpA_ZqIxyDJZP-8" target="FLj8FN6OpA_ZqIxyDJZP-6" edge="1">
                    <mxGeometry relative="1" as="geometry"/>
                </mxCell>
                <mxCell id="5b8PzUZu7B2WtOyWg8Ws-9" value="AGREGACION" style="text;html=1;align=center;verticalAlign=middle;resizable=0;points=[];autosize=1;strokeColor=none;fillColor=none;rotation=-35;fontSize=17;" parent="FLj8FN6OpA_ZqIxyDJZP-1" vertex="1">
                    <mxGeometry x="990" y="-90" width="140" height="30" as="geometry"/>
                </mxCell>
                <mxCell id="5b8PzUZu7B2WtOyWg8Ws-11" style="edgeStyle=none;html=1;exitX=1;exitY=0.5;exitDx=0;exitDy=0;endArrow=diamondThin;endFill=0;endSize=20;entryX=0;entryY=0;entryDx=0;entryDy=0;" parent="FLj8FN6OpA_ZqIxyDJZP-1" source="FLj8FN6OpA_ZqIxyDJZP-3" target="FLj8FN6OpA_ZqIxyDJZP-11" edge="1">
                    <mxGeometry relative="1" as="geometry">
                        <mxPoint x="1092" y="430" as="targetPoint"/>
                    </mxGeometry>
                </mxCell>
                <mxCell id="5b8PzUZu7B2WtOyWg8Ws-12" style="edgeStyle=none;html=1;entryX=1;entryY=0;entryDx=0;entryDy=0;endArrow=diamondThin;endFill=0;endSize=20;" parent="FLj8FN6OpA_ZqIxyDJZP-1" target="FLj8FN6OpA_ZqIxyDJZP-11" edge="1">
                    <mxGeometry relative="1" as="geometry">
                        <mxPoint x="1358" as="sourcePoint"/>
                    </mxGeometry>
                </mxCell>
                <mxCell id="5b8PzUZu7B2WtOyWg8Ws-13" value="AGREGACION" style="text;html=1;align=center;verticalAlign=middle;resizable=0;points=[];autosize=1;strokeColor=none;fillColor=none;rotation=-80;fontSize=12;" parent="FLj8FN6OpA_ZqIxyDJZP-1" vertex="1">
                    <mxGeometry x="1280" y="60" width="100" height="30" as="geometry"/>
                </mxCell>
                <mxCell id="5b8PzUZu7B2WtOyWg8Ws-14" value="AGREGACION" style="text;html=1;align=center;verticalAlign=middle;resizable=0;points=[];autosize=1;strokeColor=none;fillColor=none;rotation=45;fontSize=17;" parent="FLj8FN6OpA_ZqIxyDJZP-1" vertex="1">
                    <mxGeometry x="954" y="60" width="140" height="30" as="geometry"/>
                </mxCell>
                <mxCell id="5b8PzUZu7B2WtOyWg8Ws-22" style="edgeStyle=none;html=1;exitX=0.067;exitY=1;exitDx=0;exitDy=0;entryX=0.5;entryY=0;entryDx=0;entryDy=0;endArrow=diamondThin;endFill=0;endSize=20;exitPerimeter=0;" parent="FLj8FN6OpA_ZqIxyDJZP-1" source="FLj8FN6OpA_ZqIxyDJZP-15" target="FLj8FN6OpA_ZqIxyDJZP-39" edge="1">
                    <mxGeometry relative="1" as="geometry"/>
                </mxCell>
            </root>
        </mxGraphModel>
    </diagram>
</mxfile>